{
  "accessors": [
    {
      "bufferView": 2,
      "componentType": 5126,
      "count": 20049,
      "max": [
        18.26799964904785,
        29.38800048828125,
        39.84400177001953
      ],
      "min": [
        -61.42100143432617,
        -50.29999923706055,
        -39.84400177001953
      ],
      "type": "VEC3"
    },
    {
      "bufferView": 2,
      "byteOffset": 240588,
      "componentType": 5126,
      "count": 20049,
      "max": [
        1.0,
        1.0,
        1.0
      ],
      "min": [
        -1.0,
        -1.0,
        -1.0
      ],
      "type": "VEC3"
    },
    {
      "bufferView": 1,
      "componentType": 5126,
      "count": 20049,
      "max": [
        1.2450000047683716,
        1.0
      ],
      "min": [
        -0.004999999888241291,
        0.0
      ],
      "type": "VEC2"
    },
    {
      "bufferView": 0,
      "componentType": 5125,
      "count": 118800,
      "type": "SCALAR"
    },
    {
      "bufferView": 2,
      "byteOffset": 481176,
      "componentType": 5126,
      "count": 20001,
      "max": [
        18.049999237060547,
        29.038000106811523,
        39.369998931884766
      ],
      "min": [
        -60.689998626708984,
        -49.70199966430664,
        -39.369998931884766
      ],
      "type": "VEC3"
    },
    {
      "bufferView": 2,
      "byteOffset": 721188,
      "componentType": 5126,
      "count": 20001,
      "max": [
        1.0,
        1.0,
        1.0
      ],
      "min": [
        -1.0,
        -1.0,
        -1.0
      ],
      "type": "VEC3"
    },
    {
      "bufferView": 3,
      "componentType": 5126,
      "count": 20001,
      "max": [
        1.0,
        1.0,
        0.008032151497900486,
        1.0
      ],
      "min": [
        -1.0,
        -1.0,
        -0.00834057666361332,
        1.0
      ],
      "type": "VEC4"
    },
    {
      "bufferView": 1,
      "byteOffset": 160392,
      "componentType": 5126,
      "count": 20001,
      "max": [
        1.0,
        1.0
      ],
      "min": [
        -0.004999999888241291,
        0.0
      ],
      "type": "VEC2"
    },
    {
      "bufferView": 0,
      "byteOffset": 475200,
      "componentType": 5125,
      "count": 118800,
      "type": "SCALAR"
    }
  ],
  "asset": {
    "extras": {
      "author": "Scrunchy32205 (https://sketchfab.com/ndoll0571)",
      "license": "CC-BY-4.0 (http://creativecommons.org/licenses/by/4.0/)",
      "source": "https://sketchfab.com/3d-models/earth-dd872844bbeb4078bb4c3f87b0299ed1",
      "title": "Earth"
    },
    "generator": "Sketchfab-11.53.2",
    "version": "2.0"
  },
  "bufferViews": [
    {
      "buffer": 0,
      "byteLength": 950400,
      "name": "floatBufferViews",
      "target": 34963
    },
    {
      "buffer": 0,
      "byteLength": 320400,
      "byteOffset": 950400,
      "byteStride": 8,
      "name": "floatBufferViews",
      "target": 34962
    },
    {
      "buffer": 0,
      "byteLength": 961200,
      "byteOffset": 1270800,
      "byteStride": 12,
      "name": "floatBufferViews",
      "target": 34962
    },
    {
      "buffer": 0,
      "byteLength": 320016,
      "byteOffset": 2232000,
      "byteStride": 16,
      "name": "floatBufferViews",
      "target": 34962
    }
  ],
  "buffers": [
    {
      "byteLength": 2552016,
      "uri": "scene.bin"
    }
  ],
  "extensionsRequired": [
    "KHR_materials_pbrSpecularGlossiness"
  ],
  "extensionsUsed": [
    "KHR_materials_pbrSpecularGlossiness"
  ],
  "images": [
    {
      "uri": "textures/uploads_files_82986_20000_polygon_sphere_100mm_material_1_13c1b87a-1a54-40c9-9ed7-50f40d018f7e_diffuse.png"
    },
    {
      "uri": "textures/uploads_files_82986_20000_polygon_sphere_100mm_material_a52fcc6e-092d-4a24-80a5-75707ab162ac_diffuse.jpeg"
    },
    {
      "uri": "textures/uploads_files_82986_20000_polygon_sphere_100mm_material_a52fcc6e-092d-4a24-80a5-75707ab162ac_specularGlossiness.png"
    },
    {
      "uri": "textures/uploads_files_82986_20000_polygon_sphere_100mm_material_a52fcc6e-092d-4a24-80a5-75707ab162ac_emissive.jpeg"
    },
    {
      "uri": "textures/uploads_files_82986_20000_polygon_sphere_100mm_material_a52fcc6e-092d-4a24-80a5-75707ab162ac_normal.png"
    }
  ],
  "materials": [
    {
      "alphaCutoff": 0.07,
      "alphaMode": "MASK",
      "extensions": {
        "KHR_materials_pbrSpecularGlossiness": {
          "diffuseFactor": [
            1.0,
            1.0,
            1.0,
            1.0
          ],
          "diffuseTexture": {
            "index": 0
          },
          "glossinessFactor": 0.11057815618630183,
          "specularFactor": [
            1.0,
            1.0,
            1.0
          ]
        }
      },
      "name": "uploads_files_82986_20000_polygon_sphere_100mm_material_1_13c1b87a-1a54-40c9-9ed7-50f40d018f7e"
    },
    {
      "emissiveFactor": [
        0.8,
        0.8,
        0.8
      ],
      "emissiveTexture": {
        "index": 3
      },
      "extensions": {
        "KHR_materials_pbrSpecularGlossiness": {
          "diffuseFactor": [
            1.0,
            1.0,
            1.0,
            1.0
          ],
          "diffuseTexture": {
            "index": 1
          },
          "glossinessFactor": 1.0,
          "specularFactor": [
            1.0,
            1.0,
            1.0
          ],
          "specularGlossinessTexture": {
            "index": 2
          }
        }
      },
      "name": "uploads_files_82986_20000_polygon_sphere_100mm_material_a52fcc6e-092d-4a24-80a5-75707ab162ac",
      "normalTexture": {
        "index": 4
      }
    }
  ],
  "meshes": [
    {
      "name": "Object_0",
      "primitives": [
        {
          "attributes": {
            "NORMAL": 1,
            "POSITION": 0,
            "TEXCOORD_0": 2
          },
          "indices": 3,
          "material": 0,
          "mode": 4
        }
      ]
    },
    {
      "name": "Object_1",
      "primitives": [
        {
          "attributes": {
            "NORMAL": 5,
            "POSITION": 4,
            "TANGENT": 6,
            "TEXCOORD_0": 7
          },
          "indices": 8,
          "material": 1,
          "mode": 4
        }
      ]
    }
  ],
  "nodes": [
    {
      "children": [
        1
      ],
      "matrix": [
        1.0,
        1.6081226229577292e-16,
        3.5707495248565405e-32,
        0.0,
        0.0,
        2.220446049250313e-16,
        -1.0,
        0.0,
        -1.6081226229577292e-16,
        1.0,
        2.220446049250313e-16,
        0.0,
        0.0,
        3.469765436341782e-15,
        7.704426954950398e-31,
        1.0
      ],
      "name": "Sketchfab_model"
    },
    {
      "children": [
        2,
        3
      ],
      "name": "Project Name.obj.cleaner.materialmerger.gles"
    },
    {
      "mesh": 0,
      "name": "Object_2"
    },
    {
      "mesh": 1,
      "name": "Object_3"
    }
  ],
  "samplers": [
    {
      "magFilter": 9729,
      "minFilter": 9987,
      "wrapS": 10497,
      "wrapT": 10497
    }
  ],
  "scene": 0,
  "scenes": [
    {
      "name": "Sketchfab_Scene",
      "nodes": [
        0
      ]
    }
  ],
  "textures": [
    {
      "sampler": 0,
      "source": 0
    },
    {
      "sampler": 0,
      "source": 1
    },
    {
      "sampler": 0,
      "source": 2
    },
    {
      "sampler": 0,
      "source": 3
    },
    {
      "sampler": 0,
      "source": 4
    }
  ]
}
